<svg width="20" height="20" viewBox="0 0 20 20" fill="none" xmlns="http://www.w3.org/2000/svg">
<g id="settings">
<mask id="mask0_889_6632" style="mask-type:alpha" maskUnits="userSpaceOnUse" x="0" y="0" width="20" height="20">
<rect id="Bounding box" width="20" height="20" fill="#D9D9D9"/>
</mask>
<g mask="url(#mask0_889_6632)">
<path id="settings_2" d="M7.70736 18.3334L7.37402 15.6667C7.19347 15.5973 7.02333 15.514 6.86361 15.4167C6.70388 15.3195 6.54763 15.2154 6.39486 15.1042L3.91569 16.1459L1.62402 12.1876L3.76986 10.5626C3.75597 10.4654 3.74902 10.3716 3.74902 10.2813V9.71883C3.74902 9.62855 3.75597 9.5348 3.76986 9.43758L1.62402 7.81258L3.91569 3.85425L6.39486 4.89591C6.54763 4.7848 6.70736 4.68064 6.87402 4.58341C7.04069 4.48619 7.20736 4.40286 7.37402 4.33341L7.70736 1.66675H12.2907L12.624 4.33341C12.8046 4.40286 12.9747 4.48619 13.1344 4.58341C13.2942 4.68064 13.4504 4.7848 13.6032 4.89591L16.0824 3.85425L18.374 7.81258L16.2282 9.43758C16.2421 9.5348 16.249 9.62855 16.249 9.71883V10.2813C16.249 10.3716 16.2351 10.4654 16.2074 10.5626L18.3532 12.1876L16.0615 16.1459L13.6032 15.1042C13.4504 15.2154 13.2907 15.3195 13.124 15.4167C12.9574 15.514 12.7907 15.5973 12.624 15.6667L12.2907 18.3334H7.70736ZM10.0407 12.9167C10.8462 12.9167 11.5337 12.632 12.1032 12.0626C12.6726 11.4931 12.9574 10.8056 12.9574 10.0001C12.9574 9.19453 12.6726 8.50703 12.1032 7.93758C11.5337 7.36814 10.8462 7.08341 10.0407 7.08341C9.22125 7.08341 8.53027 7.36814 7.96777 7.93758C7.40527 8.50703 7.12402 9.19453 7.12402 10.0001C7.12402 10.8056 7.40527 11.4931 7.96777 12.0626C8.53027 12.632 9.22125 12.9167 10.0407 12.9167ZM10.0407 11.2501C9.69347 11.2501 9.39833 11.1286 9.15527 10.8855C8.91222 10.6424 8.79069 10.3473 8.79069 10.0001C8.79069 9.65286 8.91222 9.35772 9.15527 9.11466C9.39833 8.87161 9.69347 8.75008 10.0407 8.75008C10.3879 8.75008 10.6831 8.87161 10.9261 9.11466C11.1692 9.35772 11.2907 9.65286 11.2907 10.0001C11.2907 10.3473 11.1692 10.6424 10.9261 10.8855C10.6831 11.1286 10.3879 11.2501 10.0407 11.2501ZM9.16569 16.6667H10.8115L11.1032 14.4584C11.5337 14.3473 11.9331 14.1841 12.3011 13.9688C12.6692 13.7536 13.006 13.4931 13.3115 13.1876L15.374 14.0417L16.1865 12.6251L14.3949 11.2709C14.4643 11.0765 14.5129 10.8716 14.5407 10.6563C14.5685 10.4411 14.5824 10.2223 14.5824 10.0001C14.5824 9.77786 14.5685 9.55911 14.5407 9.34383C14.5129 9.12855 14.4643 8.92369 14.3949 8.72925L16.1865 7.37508L15.374 5.95841L13.3115 6.83342C13.006 6.51397 12.6692 6.24661 12.3011 6.03133C11.9331 5.81605 11.5337 5.65286 11.1032 5.54175L10.8324 3.33341H9.18652L8.89486 5.54175C8.4643 5.65286 8.065 5.81605 7.69694 6.03133C7.32888 6.24661 6.99208 6.50703 6.68652 6.81258L4.62402 5.95841L3.81152 7.37508L5.60319 8.70841C5.53375 8.91675 5.48513 9.12508 5.45736 9.33341C5.42958 9.54175 5.41569 9.76397 5.41569 10.0001C5.41569 10.2223 5.42958 10.4376 5.45736 10.6459C5.48513 10.8542 5.53375 11.0626 5.60319 11.2709L3.81152 12.6251L4.62402 14.0417L6.68652 13.1667C6.99208 13.4862 7.32888 13.7536 7.69694 13.9688C8.065 14.1841 8.4643 14.3473 8.89486 14.4584L9.16569 16.6667Z" fill="#1C1B1F"/>
</g>
</g>
</svg>
